:SAMPLES-PER-SECOND 30
:FULLY-SPECIFIED
:DEGREES
274
root  -62.6986 36.1034 5.31445 158.982 68.6544 155.934
RightUpLeg  -23.5559 11.9407 -19.7442
RightLeg  51.9454 6.26476 8.16752
RightFoot  -30.6983 0.523148 4.291
RightToes  -1.81608e-008 0 -3.6325e-017
Spine  21.7339 -3.27607 -4.95849
Spine1  -5.87301 -4.91203 4.71823
HEad  -20.0167 -1.95466 0.386577
LeftShoulder1  0.416297 1.92189 -19.8007
LeftArm  -6.1876 -13.6457 -45.696
LeftForeArm  2.32162 -62.8281 -22.5651
LeftHand  -0.0791569 6.7753 -3.91664
RightShoulder  -0.235974 -4.46098 17.3309
RightArm  -6.53387 12.9576 36.5539
RightForeArm  10.0425 73.9616 45.8043
RightHand  -0.259745 2.06603 -4.22335
LeftUpLeg  -16.704 13.3276 14.6303
LeftLeg  4.4396 -2.71869 -0.340992
LeftFoot  13.3081 5.01469 -23.0582
LeftToes  1.81866e-011 -6.13092e-011 2.52013e-011
275
root  -62.5617 36.5505 4.50867 160.691 69.1424 156.138
RightUpLeg  -22.6804 12.0494 -20.8133
RightLeg  47.8502 6.81118 7.68367
RightFoot  -29.4554 0.611265 5.09129
RightToes  -1.81608e-008 0 -3.6325e-017
Spine  19.9706 -3.24427 -6.71436
Spine1  -6.14282 -5.14344 5.67771
HEad  -20.516 -1.72721 1.30199
LeftShoulder1  0.436665 1.83025 -19.5588
LeftArm  -5.79048 -13.9576 -45.8125
LeftForeArm  2.63553 -63.0319 -22.7584
LeftHand  -0.0877702 7.14239 -3.81915
RightShoulder  -0.193787 -4.28316 17.4077
RightArm  -7.29956 10.6362 36.8425
RightForeArm  12.5392 74.4425 47.5945
RightHand  -0.25227 1.82395 -4.23551
LeftUpLeg  -17.0918 12.513 13.6388
LeftLeg  3.86342 -1.05546 -0.02688
LeftFoot  12.1145 4.73988 -22.9191
LeftToes  1.81866e-011 -6.13092e-011 2.52013e-011
276
root  -62.3903 36.9651 3.69103 162.705 69.5365 156.727
RightUpLeg  -21.5471 11.9051 -21.7327
RightLeg  43.567 7.37829 7.17098
RightFoot  -28.1258 0.695626 6.00436
RightToes  -1.81608e-008 0 -3.6325e-017
Spine  17.5277 -3.2263 -8.39553
Spine1  -5.92052 -5.27379 6.50144
HEad  -19.7652 -2.67121 1.62702
LeftShoulder1  0.440829 1.81696 -19.6044
LeftArm  -4.92247 -14.1779 -45.6995
LeftForeArm  3.1807 -63.3053 -23.0067
LeftHand  -0.0858928 7.02216 -3.92465
RightShoulder  -0.174544 -4.20289 17.4267
RightArm  -7.8723 8.2208 36.7427
RightForeArm  14.5092 74.8827 49.5085
RightHand  -0.242082 1.39636 -4.29845
LeftUpLeg  -17.7096 11.3055 12.5033
LeftLeg  3.65018 0.353861 0.689174
LeftFoot  11.4084 4.3374 -21.683
LeftToes  1.81866e-011 -6.13092e-011 2.52013e-011
277
root  -62.161 37.2493 2.95206 163.999 69.9379 156.685
RightUpLeg  -20.7524 11.2746 -22.7196
RightLeg  40.2924 8.11422 7.04689
RightFoot  -26.9593 0.769968 6.93524
RightToes  -1.81608e-008 0 -3.6325e-017
Spine  15.0791 -2.98918 -11.1518
Spine1  -6.00042 -5.27435 7.98973
HEad  -18.6369 -2.51945 1.7389
LeftShoulder1  0.421384 1.88151 -19.4375
LeftArm  -3.73702 -14.3448 -45.8459
LeftForeArm  3.08355 -63.4549 -23.1912
LeftHand  -0.0946404 7.16525 -3.62683
RightShoulder  -0.185983 -4.23916 17.825
RightArm  -8.34474 5.7147 36.5747
RightForeArm  15.578 75.1536 50.8593
RightHand  -0.239734 1.90769 -4.05264
LeftUpLeg  -18.3989 10.7506 11.648
LeftLeg  4.03024 1.37836 0.776856
LeftFoot  10.4597 4.03121 -21.0629
LeftToes  1.81866e-011 -6.13092e-011 2.52013e-011
278
root  -61.8819 37.4515 2.29584 165.351 69.8074 157.24
RightUpLeg  -19.9101 9.50948 -23.4056
RightLeg  38.5844 9.09738 7.45231
RightFoot  -25.5604 0.913291 8.71064
RightToes  -1.81608e-008 0 -3.6325e-017
Spine  13.1705 -2.8738 -14.5394
Spine1  -6.28127 -5.50309 10.2261
HEad  -16.4592 -2.99859 2.50989
LeftShoulder1  0.413234 1.86714 -18.644
LeftArm  -2.17494 -14.5068 -45.926
LeftForeArm  2.85236 -63.7465 -23.5593
LeftHand  -0.100713 7.21107 -3.44554
RightShoulder  -0.204701 -4.28419 18.7837
RightArm  -8.52998 3.30399 36.1095
RightForeArm  16.9019 75.4825 52.6528
RightHand  -0.244675 0.215147 -5.07964
LeftUpLeg  -18.7588 10.6155 11.0834
LeftLeg  4.56439 1.15841 0.438365
LeftFoot  9.01073 3.78556 -21.1869
LeftToes  1.81866e-011 -6.13092e-011 2.52013e-011
279
root  -61.6371 37.638 1.72344 167.071 69.7086 159.153
RightUpLeg  -19.7239 6.87352 -23.5667
RightLeg  39.7315 10.7401 9.20155
RightFoot  -22.5245 1.0054 11.832
RightToes  -1.81608e-008 0 -3.6325e-017
Spine  12.9342 -2.79171 -17.138
Spine1  -7.15373 -5.70775 11.8558
HEad  -14.6135 -4.05604 3.31882
LeftShoulder1  0.378223 1.94414 -17.5817
LeftArm  -1.14949 -14.5031 -46.2127
LeftForeArm  3.08929 -63.9071 -23.7256
LeftHand  -0.100381 7.08404 -3.57883
RightShoulder  -0.294217 -4.60988 19.4528
RightArm  -8.24399 1.03839 36.0711
RightForeArm  19.2558 75.8078 54.2777
RightHand  -0.197638 0.872127 -3.79415
LeftUpLeg  -18.4826 10.9792 11.1437
LeftLeg  5.53123 0.179714 -0.0130467
LeftFoot  7.39047 3.51503 -21.3698
LeftToes  1.81866e-011 -6.13092e-011 2.52013e-011
280
root  -61.4207 37.8641 1.20862 169.691 70.0247 163.148
RightUpLeg  -20.4335 2.97302 -22.8832
RightLeg  43.8152 13.0637 12.844
RightFoot  -16.5108 0.569965 15.2044
RightToes  -1.81608e-008 0 -3.6325e-017
Spine  13.651 -2.53675 -18.5666
Spine1  -7.46338 -5.80036 12.936
HEad  -13.2518 -4.11615 4.12212
LeftShoulder1  0.361712 1.98409 -17.0836
LeftArm  -0.754116 -14.5082 -46.1808
LeftForeArm  3.83066 -64.2382 -24.0457
LeftHand  -0.101941 7.13368 -3.85198
RightShoulder  -0.344943 -4.76502 20.2724
RightArm  -7.86789 -0.519281 35.9548
RightForeArm  19.2388 75.7494 53.8527
RightHand  -0.189908 1.99559 -3.14263
LeftUpLeg  -16.9081 11.8173 12.1623
LeftLeg  6.13984 -0.783493 -0.261804
LeftFoot  6.00954 3.28025 -21.5126
LeftToes  1.81866e-011 -6.13092e-011 2.52013e-011
